<svg width="154" height="19" viewBox="0 0 154 19" fill="none" xmlns="http://www.w3.org/2000/svg">
<path fill-rule="evenodd" clip-rule="evenodd" d="M0.0166416 18.8731L7.10496 9.53287C7.12071 9.51278 7.1448 9.50091 7.16981 9.50091H17.2645C17.2904 9.50091 17.3145 9.48904 17.3293 9.46895L24.4946 0.0319589C24.5103 0.0118704 24.5344 0 24.5594 0H34.6541C34.68 0 34.7041 0.0118704 34.7189 0.0319589L41.8712 9.46804C41.8869 9.48813 41.911 9.5 41.936 9.5H52.0696C52.0956 9.5 52.1196 9.51187 52.1345 9.53196L59.2144 18.8722C59.2543 18.9251 59.2163 19 59.1496 19H54.0865C54.0606 19 54.0365 18.9881 54.0207 18.9671L48.2813 11.2586C48.2656 11.2376 48.2415 11.2258 48.2155 11.2258H45.8132C45.7873 11.2258 45.7632 11.2376 45.7475 11.2586L40.0081 18.9671C39.9923 18.9881 39.9682 19 39.9423 19H34.8866C34.8199 19 34.781 18.9242 34.8218 18.8722L41.7452 9.74837C41.785 9.69541 41.747 9.62053 41.6803 9.62053H36.7562C36.7303 9.62053 36.7062 9.60775 36.6904 9.58766L30.8658 1.75865C30.85 1.73765 30.826 1.72578 30.8 1.72578H28.3977C28.3718 1.72578 28.3477 1.73765 28.3319 1.75865L22.5258 9.58766C22.5101 9.60866 22.486 9.62053 22.4601 9.62053H17.5563C17.4896 9.62053 17.4507 9.69632 17.4915 9.74837L24.4084 18.8722C24.4482 18.9251 24.4102 19 24.3435 19H19.2805C19.2545 19 19.2304 18.9881 19.2147 18.9671L13.4753 11.2586C13.4595 11.2376 13.4354 11.2258 13.4095 11.2258H11.0072C10.9813 11.2258 10.9572 11.2376 10.9414 11.2586L5.20202 18.9671C5.18627 18.9881 5.16218 19 5.13624 19H0.0814936C0.0147887 19 -0.0241224 18.9251 0.0166416 18.8731ZM129.435 19L136.654 9.51329L129.435 0H134.688L140.479 7.78601H142.957L148.748 0H154L146.781 9.51329L154 19H148.721L142.957 11.2406H140.479L134.715 19H129.435ZM108.04 0.0265359V19H119.801C123.274 19 125.968 18.1951 127.883 16.5852C129.799 14.9753 130.756 12.6136 130.756 9.5C130.756 6.38641 129.799 4.02467 127.883 2.4148C125.968 0.804935 123.274 0 119.801 0L111.209 0.0265359H108.04ZM112.337 3.44972H119.506C121.761 3.44972 123.471 3.93622 124.634 4.90922C125.798 5.86452 126.38 7.39479 126.38 9.5C126.38 11.5875 125.798 13.1178 124.634 14.0908C123.471 15.0638 121.761 15.5503 119.506 15.5503H112.337V3.44972ZM82.6823 19V0H87.075L100.796 13.6587V0H105.134V19H100.741L87.0208 5.31468V19H82.6823ZM75.8153 0V19H80.0415V0H75.8153Z" fill="url(#paint0_linear_356_211)"/>
<defs>
<linearGradient id="paint0_linear_356_211" x1="-36.1307" y1="-4.15625" x2="-35.4775" y2="24.1283" gradientUnits="userSpaceOnUse">
<stop stop-color="#EAEAEC"/>
<stop offset="0.165" stop-color="#FC9369"/>
<stop offset="0.33" stop-color="#FF492A"/>
<stop offset="0.495" stop-color="#C91603"/>
<stop offset="0.705" stop-color="#760400"/>
<stop offset="0.955" stop-color="#010011"/>
</linearGradient>
</defs>
</svg>
